# xmcd
#
# Track frame offsets:
#	150
#	17165
#	33193
#	52358
#	66858
#	80678
#	95885
#	112958
#	129795
#	143780
#	159093
#	173370
#	188240
#	203800
#	218270
#	231598
#	247915
#	266495
#	283485
#	298563
#	314528
#
# Disc length: 4438 seconds
#
# Revision: 3
# Processed by: cddbd v1.5.2PL0 Copyright (c) Steve Scherf et al.
# Submitted via: EasyCDDAExtractor 16.0.6.1
#
DISCID=30115415
DTITLE=Καζαντζίδης Στέλιος - Ό,τι δεν είπα-Σ. Καζαντζίδης
DYEAR=1989
DGENRE=Λαϊκή
TTITLE0=Καζαντζίδης Στέλιος - Ο τραγουδιστής [Χρ. Νικολόπουλος-Μ. Μπιζάνη]
TTITLE1=Καζαντζίδης Στέλιος - Συγχώρεσέ με [Σ. Καζαντζίδης]
TTITLE2=Στανίση Κατερίνα - Αυτή η νύχτα μένει [Σ. Καζαντζίδης]
TTITLE3=Καζαντζίδης Στέλιος - Σταλαματιά, σταλαματιά [Σ. Τζουανάκος-Ν. Γκούμας
TTITLE3=]
TTITLE4=Καζαντζίδης Στέλιος - Ο καψούρης [Γ. Παπαϊωάννου]
TTITLE5=Καζαντζίδης Στέλιος - Αραπίνες [Β. Τσιτσάνης]
TTITLE6=Καζαντζίδης Στέλιος - Το παλιόσπιτο [Β. Τσιτσάνης]
TTITLE7=Καζαντζίδης Στέλιος - Ο ψαράς [Γ. Μητσάκης]
TTITLE8=Καζαντζίδης Στέλιος - Η καρδιά της μάννας[Ν.Πετρίδης-Σ.Καζ)ίδης-Πυθαγό
TTITLE8=ρας]
TTITLE9=Καζαντζίδης Στέλιος - Πλήγωσέ με όσο θέλεις [Β. Τσιτσάνης]
TTITLE10=Καζαντζίδης Στέλιος - Τα ροζιασμένα χέρια [Ν.Πετρίδης-Σ.Καζ)ίδης-Πυθα
TTITLE10=γόρας]
TTITLE11=Καζαντζίδης Στέλιος - Παραστράτησα για σένα [Κ. Καπλάνης]
TTITLE12=Στανίση Κατερίνα - Θα φύγω μακριά σου [Σ. Καζαντζίδης]
TTITLE13=Καζαντζίδης Στέλιος - Βαριά χτυπούν τα σήμαντρα [Β. Τσιτσάνης]
TTITLE14=Καζαντζίδης Στέλιος - Ο Αντώνης ο βαρκάρης [Σ. Περιστέρης-Μ. Μάτσας]
TTITLE15=Καζαντζίδης Στέλιος - Μπρος στο ρημαγμένο σπίτι [Β. Τσιτσάνης]
TTITLE16=Καζαντζίδης Στέλιος - Γιατί με ξύπνησες πρωΐ [Β. Τσιτσάνης]
TTITLE17=Καζαντζίδης Στέλιος - Καρδιά παραπονιάρα [Α. Χατζηχρήστος-Ι. Λελάκης]
TTITLE18=Καζαντζίδης Στέλιος - Ήθελα νά 'μουνα πασάς [Σ. Χρυσίνης]
TTITLE19=Καζαντζίδης Στέλιος - Το καπηλειό [Γ. Μητσάκης]
TTITLE20=Καζαντζίδης Στέλιος - Μάννα μου [Τ. Χάρμας]
EXTD=
EXTT0=
EXTT1=
EXTT2=
EXTT3=
EXTT4=
EXTT5=
EXTT6=
EXTT7=
EXTT8=
EXTT9=
EXTT10=
EXTT11=
EXTT12=
EXTT13=
EXTT14=
EXTT15=
EXTT16=
EXTT17=
EXTT18=
EXTT19=
EXTT20=
PLAYORDER=
